<?xml version="1.0" encoding="UTF-8"?>
<svg enable-background="new 0 0 582.8 203.8" version="1.1" viewBox="0 0 582.8 203.8" xml:space="preserve" xmlns="http://www.w3.org/2000/svg">
<style type="text/css">
	.st0{fill:#FFFFFF;}
</style>
<title>magazine</title>
<path class="st0" d="m200.3 2.9c0 1.7-0.4 3.4-1.2 5-0.8 1.7-1.7 3.3-2.5 5-2.1 3.2-4.3 6.8-6.7 10.8s-6.1 9.1-10.9 15.5c0.3 8.1 0.7 16.3 1.2 24.6s1.1 16.3 1.8 24.1 1.4 14.9 2.3 21.5c0.7 5.7 1.8 11.4 3.1 17 0.7 3.8 1.5 7.8 2.2 11.9 0.7 3.7 1 7.5 1.1 11.3 0 1.9-0.3 3.7-0.9 5.5s-1.4 3.6-2.3 5.2c-0.9 1.4-2 2.7-3.3 3.9-1.2 1-2.6 1.5-4.1 1.5-1.9 0-3.6-1.2-5.2-3.6-1.7-3-3.1-6.2-3.9-9.6-1.1-4.4-2-8.9-2.6-13.4-0.7-4.9-1.3-9.9-1.8-14.9s-0.7-9.7-0.9-14.2-0.2-8.3-0.2-11.4c0-7.5 0.5-15 1.5-22.4 1-8 1.6-15.6 1.8-22.6-3.6 5.1-6.9 10.4-9.6 16-3.5 6.8-7.2 14.2-11.3 22.1s-8.3 15.9-12.7 24.1c-4.1 7.7-8.7 15.1-13.7 22.3-4.1 6.1-9.1 11.6-14.7 16.3-5.1 4.2-10.2 6.3-15.3 6.3-2.7 0-5.3-0.6-7.7-1.8s-4.6-2.6-6.6-4.4c-2.1-1.8-4-3.8-5.7-6-1.8-2.2-3.4-4.3-4.9-6.4-5.4-7.3-10.3-14.9-14.8-22.8-4.4-7.7-8.5-15.6-12.1-23.7-0.4 4.5-0.5 9-0.4 13.5 0.1 2.9 0.2 5.5 0.2 7.7 0 6.8-0.5 13.6-1.4 20.3s-3.2 13.3-6.5 19.2c-2 4.1-6.3 6.6-10.8 6.4-0.7 0-1.7-0.1-2.8-0.2s-2.1-0.4-3.1-0.9c-0.9-0.4-1.8-1-2.5-1.7-0.7-0.6-1.1-1.5-1.1-2.5 0.3-2.7 0.8-5.3 1.4-7.9 0.7-2.5 1.4-4.9 2.1-7.3 1.5-4.4 2.8-9.2 4.1-14.2s2.4-10.3 3.4-15.6 1.9-10.6 2.8-16 1.4-10.6 1.9-15.6c0-1 0-2.1 0.1-3.1 0.1-1.1 0.4-2.2 1-3.1-1.5-4.8-3.7-9.3-6.5-13.5-3-4.7-6.1-9.2-9.3-13.4s-6-7.9-8.4-11-3.7-5.3-3.9-6.3c-0.1-0.6 0-0.9 0.6-1s1.2-0.1 1.8 0c0.7 0.1 1.4 0.3 2 0.6 0.4 0.2 0.8 0.3 1.2 0.4 5.9 3.8 11.2 8.5 15.8 13.8 4.9 5.8 9.4 11.9 13.4 18.3 4.3 6.8 8.5 14.4 12.8 22.7s9 17.3 14.3 27v-0.2c1.5 2.6 3.2 5.7 5.2 9.3s4.2 6.9 6.5 10.2c2.2 3 4.6 5.7 7.3 8.2 2.1 2 4.8 3.2 7.7 3.3 2.6-0.1 5.8-2.4 9.4-6.7 4.2-5.2 8-10.6 11.4-16.3 4-6.5 8-13.7 12-21.4s7.9-15 11.6-22c1.6-3.2 3.8-7.4 6.6-12.4s6-10.3 9.5-16 7.3-11.3 11.4-17c3.8-5.4 8-10.6 12.5-15.5 3.8-4.2 8.1-8 12.8-11.3 3.3-2.7 7.5-4.3 11.8-4.4 1.4-0.1 2.6 1 2.7 2.5 0.1 0.1 0 0.3 0 0.4zm232.2 93.7c0.4 2.7 0.4 5.4 0 8.1-0.5 3-1.7 5.9-3.3 8.5-1.8 3.1-3.9 6-6.1 8.8-2.2 2.9-4.7 5.6-7.3 8.1-2.2 2.2-4.5 4.2-7 6 1.6 0.7 3.1 1.5 4.6 2.4s2.9 1.8 4.2 2.6c2.6-0.7 5.2-1.1 7.9-1.1 1.1-0.1 2.2 0.3 3.1 1 1.3 1.1 1.5 3.1 0.3 4.4 0 0.1-0.1 0.1-0.1 0.2-0.7 0.7-1.6 1.1-2.6 1-0.5 0-1 0-1.5 0.1-0.4 0.1-0.9 0.1-1.3 0.1 3.1 3.7 5.1 8.3 5.7 13.1 0.6 4.7 0.3 9.5-1 14.1-1.3 4.7-3.4 9.1-6.2 13.1-2.7 4-6 7.5-9.8 10.4-3.5 2.7-7.6 4.7-11.9 5.7-4.2 1-8.6 0.8-12.6-0.7s-6.3-4.6-6.8-9.4c-0.5-5.4 0.2-10.8 2.2-15.9 2.3-6.2 5.5-12.1 9.5-17.4 4-5.6 9-10.3 14.8-14-1.9-1.9-4.7-3.2-8.4-4-2.4-0.3-4-0.9-4.9-1.9-0.9-0.9-1.3-2.1-1.2-3.3 0.2-1.4 0.7-2.8 1.4-4.1 1-1.6 2.1-3 3.3-4.4 1.3-1.5 3.3-3.9 5.8-7.4s5-7 7.4-10.6c2.1-3.1 4-6.4 5.6-9.8 1.4-2.9 1.5-4.6 0.3-5.1-1.2-0.6-3.2 0.2-6 2.4-3.1 2.5-6.1 5.3-8.7 8.4-3 3.4-5.8 7-8.3 10.7-0.1 0.2-0.2 0.3-0.3 0.5-0.6 2.2-1.4 4.7-2.3 7.4-1 2.9-2.2 6-3.6 9.2-1.3 3-2.9 5.8-4.9 8.4-1.7 2.3-3.8 4.2-6.2 5.6-2.2 1.3-4.9 1.6-7.4 0.9-4.1-1-7.5-3.9-9.3-7.7-1.1 3.4-2.8 6.7-4.9 9.6-2 2.8-4.7 5-7.9 6.3-2.6 0.9-5.5 1.2-8.2 0.7-4.3-1.2-8-4-10.2-7.9-2.6-4.4-4.3-9.3-5.1-14.3-0.1-0.9-0.3-1.7-0.4-2.6-0.3 0.5-0.6 0.9-0.9 1.4-3.5 5.5-7.6 10.5-12.3 14.9-0.3 2.4-0.7 4.7-1.2 7.1-0.5 2.5-1.1 4.9-1.9 7.3-2.4 7.4-5.7 12.8-10 16.2-3.8 3.2-8.3 5.3-13.2 6.2-4.2 0.7-8.6 0.2-12.6-1.4-3.9-1.6-6.5-3.8-7.8-6.6-2.2-4.7-2.5-8.9-0.8-12.5 1.8-3.7 4.6-6.9 8.1-9.2 3.7-2.5 7.8-4.5 12.1-5.8 3.7-1.2 7.6-2 11.5-2.5l0.7-6c-1.3 1.7-2.9 3.1-4.7 4.2-2.3 1.3-4.9 1.9-7.6 1.8-5.4 0-9.7-1.5-12.8-4.6-2.6-2.6-4.5-5.8-5.6-9.3v0.1c-1.3 3-2.9 5.8-4.9 8.4-1.7 2.3-3.8 4.2-6.2 5.6-2.2 1.3-4.9 1.6-7.4 0.9-4.1-1-7.5-3.9-9.3-7.7-1.1 3.4-2.8 6.7-4.9 9.6-2 2.8-4.7 5-7.9 6.3-2.6 0.9-5.5 1.2-8.2 0.7-4.3-1.2-8-4-10.2-7.9-2.6-4.4-4.3-9.3-5.1-14.3-0.9-5.6-1-11.4-0.2-17 0.6-5.5 2.1-10.9 4.5-15.9 2-4.4 5.2-8.3 9.2-11.1 3.8-2.7 8.5-3.6 13.9-2.5 2.1 0.4 3.9 1.4 5.4 2.9s2.8 3.1 3.9 4.9c1.1-1.3 2.7-2.1 4.4-2.2s3.5 0.1 5.1 0.8 3 1.7 4 3.1c1 1.5 1.4 3.3 1.1 5-0.6 2.6-1.1 6-1.7 9.9s-0.8 7.8-1 11.5c-0.1 3.2 0 6.3 0.3 9.5 0.4 2.6 1.1 4 2.3 4 0.9 0 1.9-1.1 3.2-3.4s2.5-5 3.8-8.1 2.4-6.2 3.4-9.3c0.8-2.3 1.5-4.7 2-7.1 0-0.1 0.1-0.3 0.1-0.4 0.7-3 1.7-6 3-8.8 1.9-4.4 4.7-8.3 8.2-11.5 3.2-2.9 7.4-4.5 11.7-4.5 2.8 0.1 5.5 1 7.7 2.6 2.8 1.9 5 4.5 6.4 7.5 1.3-0.3 2.7-0.4 4.1-0.3s2.7 0.4 4 0.9c1.2 0.5 2.2 1.3 3 2.4 0.7 1.2 1 2.7 0.9 4.1-0.7 7.2-1.2 13.5-1.3 19s-0.3 10.5-0.4 15c5.4-6.8 10.1-15.5 13.9-26 0.1-0.4 0.2-0.7 0.4-1 0.7-2.3 1.6-4.5 2.6-6.7 2-4.4 5.2-8.3 9.2-11.1 3.8-2.7 8.5-3.6 13.9-2.5 2.1 0.4 3.9 1.4 5.4 2.9s2.8 3.1 3.9 4.9c1.1-1.3 2.7-2.1 4.4-2.2s3.5 0.1 5.1 0.8 3 1.7 4 3.1c1 1.5 1.4 3.3 1.1 5-0.6 2.6-1.1 6-1.7 9.9s-0.8 7.8-1 11.5c-0.1 3.2 0 6.3 0.3 9.5 0.4 2.6 1.1 4 2.3 4 0.9 0 1.9-1.1 3.2-3.4 0.7-1.2 1.3-2.6 2-4-0.8-1.1-1-2.9-0.6-5.6s1.5-6.2 3.8-10.3c2.4-4.3 5.1-8.3 8.3-12 3.3-4 7-7.6 11.1-10.7 3.6-3 7.9-5.1 12.4-6.3 2.9-0.7 6-0.7 8.9 0.1 2.3 0.7 4.3 2.2 5.7 4.1 1.7 1 2.6 3.3 3.1 5.9zm-199.1 14.4c-0.3-2.5-0.8-4.9-1.7-7.3-0.8-2.4-2-3.7-3.6-4-2.4-0.4-4.8 0.5-6.3 2.5-2 2.5-3.5 5.4-4.5 8.5-1.2 3.8-2.1 7.7-2.5 11.6-0.5 3.9-0.7 7.9-0.4 11.9 0.1 3.3 0.7 6.5 1.8 9.6 1 2.6 2.4 4.1 4.3 4.4s3.7-0.7 5.4-3.1c1.9-2.8 3.4-5.8 4.4-9 1.3-4 2.3-8.1 2.9-12.2 0.5-4.3 0.6-8.6 0.2-12.9zm59.6 44.8c-4.2 0.7-8.2 2.2-11.8 4.5-3.5 2.1-5.9 5.6-6.5 9.6-0.4 2.4 0 4.1 1.2 5.3s3.1 1.6 4.7 0.9c1.9-0.6 4-2.2 6.2-5s4-6.8 5.5-12.2l0.7-3.1zm3.2-49c-0.3-3-1-6-2.3-8.7-1.2-2.4-2.6-3.8-4.4-4.1s-3.6 0.6-5.2 2.8c-1.7 2.5-3.1 5.3-4 8.2-2.2 7-3.1 14.4-2.4 21.7 0.3 3 1.1 5.8 2.4 8.5 1 2.1 3.1 3.4 5.4 3.4 1.1 0.1 2.2-0.3 3-1s1.5-1.5 2-2.4c0.5-1 1-2.1 1.4-3.2s0.8-2.1 1.3-3.1c1.3-3.5 2.2-7.2 2.6-11 0.5-3.7 0.6-7.4 0.2-11.1zm60.6 4.2c-0.3-2.5-0.8-4.9-1.7-7.3-0.8-2.4-2-3.7-3.6-4-2.4-0.4-4.8 0.5-6.3 2.5-2 2.5-3.5 5.4-4.5 8.5-1.2 3.8-2.1 7.7-2.5 11.6-0.5 3.9-0.7 7.9-0.4 11.9 0.1 3.3 0.7 6.5 1.8 9.6 1 2.6 2.4 4.1 4.3 4.4s3.7-0.7 5.4-3.1c1.9-2.8 3.4-5.8 4.4-9 1.3-4 2.3-8.1 2.9-12.2 0.5-4.3 0.6-8.6 0.2-12.9zm42.7 52.6c-2.9 4.3-5.4 8.9-7.3 13.7-1.5 3.6-2.4 7.5-2.5 11.4 0 3.2 1 4.7 3.1 4.7 2.5 0 5.1-1.5 7.7-4.4 2.8-3.2 5.1-6.8 6.8-10.7 1.9-4.3 3.3-8.8 4.1-13.5 0.8-4.3 0.6-8.7-0.6-12.9-4.5 3.1-8.3 7.1-11.3 11.7zm54.8-78.2c1.9-0.3 3.7-0.8 5.5-1.5 1.7-0.7 3.2-1.6 4.6-2.8 1.2-1 2.3-2.3 3-3.8 0.7-1.4 0.9-3 0.6-4.5-0.4-3.1-2.4-5.3-5.7-6.7-3.7-1.4-7.6-1.8-11.5-1-3.8 0.5-7.4 2-10.3 4.5-2.5 2-3.7 5.2-3 8.3 0.4 3.1 2.4 5.2 6 6.4 3.5 1.2 7.2 1.6 10.8 1.1zm128.3 26.3c-0.3 0.9-0.8 2.6-1.5 5.2-0.9 3-1.9 5.9-3.2 8.7-1.5 3.4-3.2 6.8-5.1 10-2 3.5-4.4 6.6-7.2 9.5s-6 5.3-9.6 7.2c-3.7 1.9-7.8 2.9-12 2.9-5.3 0-9.4-1.8-12.4-5.5-3.1-4.1-5.1-8.9-6-13.9-0.3-1.8-0.6-3.7-0.7-5.5-0.1 0.1-0.1 0.2-0.2 0.3-2.1 3.3-4.5 6.2-7.3 8.9-2.6 2.6-5.2 3.9-7.7 3.9-4.3 0-7.3-1.1-9.2-3.4-1.8-2.2-3-4.9-3.6-7.7s-0.8-5.6-0.7-8.4c0.1-2.7 0.1-4.4-0.2-5.2-0.7 0.3-1.5 1.3-2.3 3.1-0.9 2-1.7 4.1-2.3 6.2-0.7 2.4-1.4 4.8-2 7.4-0.5 2.1-0.9 4.3-1.1 6.5-0.3 1.8-1.4 3.4-3 4.3-1.7 1-3.6 1.4-5.5 1.4s-3.8-0.5-5.4-1.5c-1.7-1-2.5-3-2.2-4.9 0.1-2.2 0.1-4.9 0-8-0.1 0.3-0.2 0.6-0.4 0.8-1.3 3-2.9 5.8-4.9 8.4-1.6 2.2-3.7 4.1-6.1 5.6-2.2 1.3-4.8 1.6-7.3 0.9-4-1.2-6.8-3.3-8.5-6.5-1.8-3.4-2.8-7.2-3-11-0.3-4.6-0.3-9.1 0.1-13.7 0.4-4.9 0.6-9.7 0.6-14.5 0-3.5 0.9-6 2.8-7.3 1.8-1.3 3.9-1.8 6.1-1.5s4.2 1.3 5.7 2.9c1.6 1.6 2.3 3.8 1.8 6-0.6 2.6-1.1 6-1.7 9.9s-0.8 7.8-1 11.5c-0.1 3.2 0 6.3 0.3 9.5 0.4 2.6 1.2 4 2.5 4 0.9 0 1.9-1.1 3.2-3.4 1.4-2.6 2.6-5.3 3.6-8.1 1.2-3.1 2.3-6.2 3.3-9.3 0.8-2.3 1.5-4.7 2-7.1v-0.6c0-3.3 0.3-6.6 0.9-9.9 0.3-2.6 1.6-5 3.8-6.6 1.8-1.4 4-2.2 6.3-2.4 2-0.2 3.9 0.3 5.6 1.3 1.6 1 2.3 2.6 2 4.9-0.3 2.1-0.7 4.4-1.2 7s-1 5.2-1.4 7.7-0.8 5-1 7.3c-0.2 1.9-0.3 3.7-0.1 5.6 1.1-3.7 2.4-7.3 4.1-10.7 1.3-2.8 2.9-5.5 4.7-8.1 1.3-1.6 3-2.7 4.9-3.4 1.9-0.8 3.9-1.2 6-1.1 1.7 0 3.3 0.6 4.6 1.7 1.2 1 1.4 2.5 0.7 4.4-0.5 2-0.9 4.1-1.2 6.2-0.4 2.8-0.6 5.7-0.6 8.5 0 2.5 0.1 5 0.4 7.5 0.3 2.1 0.8 3.2 1.5 3.2 0.9 0 2.1-0.8 3.5-2.4 1.6-1.8 3.1-3.8 4.4-5.8 1.5-2.4 2.9-4.8 4.1-7.3 1-2 1.9-4.1 2.6-6.2 0.7-3.7 1.7-7.3 2.9-10.9 1.7-5 4.2-9.7 7.5-13.9 3-3.7 6.4-5.5 10-5.5 3.5 0 6.8 1.3 9.4 3.6 2.7 2.4 4.8 5.3 6.3 8.5 1.5 3.1 2.3 6.5 2.5 9.9s-0.4 6-1.9 7.9c-1.2 1.6-2.7 3-4.4 4-1.8 1-3.7 1.9-5.7 2.5-2.1 0.7-4.2 1.1-6.3 1.4s-4 0.5-5.6 0.7c-0.4 3.1-0.7 6.1-0.8 9-0.1 2.6 0.1 5.3 0.4 7.9 0.3 2.1 0.9 4.1 1.8 6 0.7 1.5 1.9 2.6 3.4 3.1 2.1 0.6 4.4 0.2 6.2-1 2.4-1.4 4.5-3.2 6.4-5.2 2.2-2.4 4.2-5 6-7.7 1.9-2.9 3.6-5.8 5.1-8.5s2.7-5.2 3.8-7.5c0.8-1.6 1.4-3.3 2-5 0.3-1.1 1-2.1 2.1-2.6 0.9-0.4 1.8-0.6 2.8-0.4 0.9 0.1 1.7 0.6 2.2 1.4 0.7 0.5 0.9 1.6 0.6 2.9zm-40-3.3c1.7 0 3.3-0.2 4.9-0.6 1.4-0.2 2.7-1.1 3.5-2.3 0.7-1.2 1.1-2.5 1.1-3.9 0.1-1.7 0.1-3.5-0.1-5.2-0.2-1.5-0.5-3-1.1-4.4-0.5-1.2-1.1-1.6-1.7-1.3-1 0.4-2.1 2.3-3.3 5.6-1.3 4-2.4 8-3.3 12.1zm-94.6 65.4l3.4-8.5h3.2l-5.4 13.3h-2.5l-5.4-13.3h3.2l3.5 8.5zm17.8-8.4v2.6h-6.6v2.7h6v2.5h-6v2.8h6.8v2.6h-9.8v-13.3l9.6 0.1zm13.7 4.4c0 2.1-0.8 3.5-2.5 4.1l3.4 4.8h-3.7l-3-4.2h-2.1v4.2h-3v-13.3h5c2.1 0 3.5 0.3 4.4 1 1 0.7 1.5 1.8 1.5 3.4zm-3.6 1.6c0.4-0.3 0.6-0.9 0.6-1.6s-0.2-1.2-0.6-1.5-1-0.4-2-0.4h-2.2v3.9h2.2c0.9 0.1 1.6-0.1 2-0.4zm9.7-3.4c-0.3 0.2-0.4 0.5-0.4 0.9s0.2 0.7 0.5 0.9 1.2 0.5 2.4 0.8c1.3 0.3 2.2 0.8 2.9 1.4s1 1.5 1 2.7-0.4 2.2-1.3 2.9-2.1 1.1-3.5 1.1c-2.1 0-4-0.8-5.7-2.3l1.8-2.2c1.4 1.3 2.8 1.9 4 1.9 0.5 0 1-0.1 1.3-0.4 0.3-0.2 0.5-0.6 0.5-1s-0.2-0.7-0.5-1-1-0.5-2-0.7c-1.5-0.4-2.7-0.8-3.4-1.4s-1.1-1.5-1.1-2.8 0.5-2.2 1.4-2.9 2-1 3.4-1c0.9 0 1.8 0.2 2.7 0.5s1.7 0.7 2.3 1.3l-1.5 2.2c-1.2-0.9-2.3-1.3-3.6-1.3-0.5 0.1-0.9 0.2-1.2 0.4zm9.1-2.6h3v13.3h-3v-13.3zm17.4 11.4c-1.3 1.3-3 2-5 2s-3.6-0.7-5-2c-1.3-1.3-2-2.9-2-4.9s0.7-3.6 2-4.9 3-2 5-2 3.6 0.7 5 2 2 2.9 2 4.9-0.6 3.6-2 4.9zm-1-4.8c0-1.2-0.4-2.2-1.1-3-0.8-0.8-1.7-1.3-2.8-1.3s-2 0.4-2.8 1.3c-0.8 0.8-1.1 1.9-1.1 3s0.4 2.2 1.1 3c0.8 0.8 1.7 1.2 2.8 1.2s2-0.4 2.8-1.2c0.7-0.8 1.1-1.9 1.1-3zm14.9-6.6h3v13.3h-3l-6.3-8.3v8.3h-3v-13.3h2.8l6.5 8.6v-8.6z"/>
	<path class="st0" d="m537.2 168.2v-2.5h8.2v2.1l-2.7 3.1c1.1 0.2 1.9 0.6 2.5 1.3s0.9 1.5 0.9 2.5c0 1.4-0.5 2.5-1.4 3.3s-2.2 1.2-3.6 1.2c-1.5 0-3-0.5-4.5-1.6l1.2-2.4c1.3 0.9 2.4 1.3 3.4 1.3 0.6 0 1.1-0.1 1.5-0.4s0.6-0.7 0.6-1.3-0.2-1-0.7-1.3c-0.4-0.3-1.1-0.5-1.9-0.5-0.4 0-1 0.1-1.8 0.4v-2.2l2.6-3h-4.3z"/>
	<path class="st0" d="m547.5 178.6c-0.3-0.3-0.5-0.7-0.5-1.2s0.2-0.9 0.5-1.2 0.7-0.5 1.2-0.5 0.9 0.2 1.2 0.5 0.5 0.7 0.5 1.2-0.2 0.9-0.5 1.2-0.7 0.5-1.2 0.5-0.9-0.2-1.2-0.5z"/>
	<path class="st0" d="m556.8 179.1c-1.8 0-3.2-0.6-4.1-1.9s-1.4-2.9-1.4-5 0.5-3.8 1.4-5c0.9-1.3 2.3-1.9 4.1-1.9s3.2 0.6 4.1 1.9 1.4 2.9 1.4 5-0.5 3.8-1.4 5c-0.8 1.3-2.2 1.9-4.1 1.9zm-1.9-10.1c-0.4 0.8-0.6 1.9-0.6 3.2s0.2 2.4 0.6 3.2 1.1 1.2 2 1.2 1.5-0.4 2-1.2 0.6-1.9 0.6-3.2-0.2-2.4-0.6-3.2-1.1-1.2-2-1.2-1.6 0.4-2 1.2z"/>
</svg>
